<svg id="Layer_1" enable-background="new 0 0 480 480" height="512" viewBox="0 0 480 480" width="512" xmlns="http://www.w3.org/2000/svg"><path d="m288.83 334.93c-10.47 9.98-20.28 19.54-25.39 36.79-.75 2.54-2.76 4.5-5.29 5.3-12.15 3.84-24.81 3.64-36.33 0-2.52-.79-4.51-2.77-5.27-5.31-5.53-18.654-16.752-28.134-25.541-37.151-4.172-4.28.467-11.271 6.066-9.178 27.796 10.392 58.572 10.299 86.173-.115 5.401-2.037 10.733 4.744 5.582 9.664zm-28.345 67.955v69.115c0 4.418-3.582 8-8 8h-24.971c-4.418 0-8-3.582-8-8v-68.987c0-4.899 4.327-8.751 9.173-8.027 7.605 1.136 15.261 1.101 22.699-.023 4.801-.725 9.099 3.066 9.099 7.922zm141.515 21.855v47.26c0 4.418-3.582 8-8 8h-109.515c-4.418 0-8-3.582-8-8v-80.127c0-14.236 5.537-27.621 15.593-37.696l11.305-11.018c1.988-1.937 4.844-2.779 7.529-2.078 2.747.717 5.604 1.088 8.518 1.088 45.629.001 82.57 36.942 82.57 82.571zm-198.485 47.26c0 4.418-3.582 8-8 8h-109.515c-4.418 0-8-3.582-8-8v-47.26c0-45.63 36.942-82.57 82.57-82.57 3.035 0 5.984-.404 8.763-1.15 2.709-.727 5.598.132 7.579 2.118l10.974 11.004c10.078 10.079 15.629 23.479 15.629 37.731zm64.485-472h-56c-57.438 0-104 46.562-104 104 0 83.915-.015 78.83.032 79.896.254 5.776 8.954 5.481 8.95-.3-.009-11.448.049-11.403.539-13.745 1.985-9.361 9.463-16.761 18.98-18.57 15.23-3.412 16.315-10.75 18.68-25.75 2.26-14.32 5.36-33.94 24.1-48.49 17.61-13.67 40.082-17.24 60.72-7.61 20.396-9.531 42.891-6.221 60.71 7.61 18.75 14.55 21.85 34.17 24.11 48.49 2.371 15.036 3.487 22.543 19.15 25.85 11.113 2.365 19.03 12.172 19.03 23.48v9.035c0 5.762 8.64 6.076 8.952.323.074-1.375.047-81.226.047-80.219 0-57.438-46.562-104-104-104zm72.66 167.03c-46.392-9.8-18.774-53.287-49.76-77.35-16.235-12.607-35.317-12.555-50.9-1.88-15.982-10.947-35.054-10.431-50.91 1.88-30.987 24.058-3.384 67.363-49.5 77.3-3.891.699-6.672 4.146-6.59 8 0 .251-.006 36.589.01 36.84.91 58.22 48.56 105.3 106.99 105.3 59 0 107-48 107-107v-35.26c0-3.78-2.64-7.05-6.34-7.83z"/></svg>